inDegrees=yes
name=ik_S51_A09_T02
DataType=double
version=3
OpenSimVersion=4.3-2021-08-27-4bc7ad9
endheader
time	pelvis_tilt	pelvis_list	pelvis_rotation	pelvis_tx	pelvis_ty	pelvis_tz	hip_flexion_r	hip_adduction_r	hip_rotation_r	knee_angle_r	knee_angle_r_beta	ankle_angle_r	subtalar_angle_r	mtp_angle_r	hip_flexion_l	hip_adduction_l	hip_rotation_l	knee_angle_l	knee_angle_l_beta	ankle_angle_l	subtalar_angle_l	mtp_angle_l	lumbar_extension	lumbar_bending	lumbar_rotation	arm_flex_r	arm_add_r	arm_rot_r	elbow_flex_r	pro_sup_r	wrist_flex_r	wrist_dev_r	arm_flex_l	arm_add_l	arm_rot_l	elbow_flex_l	pro_sup_l	wrist_flex_l	wrist_dev_l
12.07999999999983	-5.552570081331874	-0.5573635036000613	28.84571353701073	0	0.9399999999999999	0	36.14201271825407	-10.86738908144848	-9.758317779186413	52.47553935518351	0.9158709385078143	0	0	0	36.14201271825407	-10.86738908144848	-9.758317779186413	52.47553935518351	0.9158709385078143	0	0	0	-4.102627879532637	-0.530301502162485	-1.084215190916887	22.85592461653056	-58.03252101567998	-14.53422790218367	173.1760253198302	-5.234907766167898	0	0	51.70403652903911	-5.555022525616922	-15.38011569765798	54.58099290657869	99.6771225728296	0	0
12.09999999999983	-5.538955257313949	-0.5862691420433278	28.87676090622455	0	0.9399999999999999	0	36.14773518979663	-10.86545429759926	-9.758663232742002	52.47661538116228	0.9158897187039808	0	0	0	36.14773518979663	-10.86545429759926	-9.758663232742002	52.47661538116228	0.9158897187039808	0	0	0	-4.105005710415167	-0.5590052890157	-1.110317340805566	23.10103350953283	-58.17511046365992	-14.35718233334868	173.0789663491626	-4.61948601320123	0	0	51.64211774703131	-5.442053294631245	-15.7973659474758	54.41939154684073	99.4483138422183	0	0
12.11999999999983	-5.526377756367414	-0.6030635689865754	28.87136112667519	0	0.9399999999999999	0	36.15166658391505	-10.86413161603986	-9.758899847182699	52.4773574802618	0.9159026707766437	0	0	0	36.15166658391505	-10.86413161603986	-9.758899847182699	52.4773574802618	0.9159026707766437	0	0	0	-4.102477466501227	-0.5774295237975157	-1.131375156977025	23.12643503809005	-58.09948694439629	-14.34207660978543	173.1427408578697	-3.863904560175589	0	0	51.58124003600886	-5.31484052143946	-16.09383113306928	54.34146422422614	99.52315117546793	0	0
12.13999999999983	-5.515519226999601	-0.6210602717201515	28.83673346486018	0	0.9399999999999999	0	36.15901336304098	-10.86165397379572	-9.759342820778015	52.4787392333417	0.9159267869173374	0	0	0	36.15901336304098	-10.86165397379572	-9.759342820778015	52.4787392333417	0.9159267869173374	0	0	0	-4.101857989706443	-0.598795555471516	-1.111130719388172	23.83071827024191	-58.65738002905942	-14.07301930391263	173.0836377602993	-3.817574086851443	0	0	51.56718027148325	-5.145855779775288	-16.15860576712755	54.25456851505381	99.66647824759126	0	0
12.15999999999983	-5.492738853557937	-0.6327201553884754	28.80630342272059	0	0.9399999999999999	0	36.16135351168106	-10.86086977811357	-9.759483364163728	52.47918166644752	0.9159345088317539	0	0	0	36.16135351168106	-10.86086977811357	-9.759483364163728	52.47918166644752	0.9159345088317539	0	0	0	-4.087151501774866	-0.6230186970421898	-1.067339837374686	24.1147276792898	-58.95579525337059	-14.07755631925934	173.1924976528408	-3.587217205009208	0	0	51.52431915926677	-4.97858905236832	-16.00543718329857	54.23773872715558	99.53793991776057	0	0
12.17999999999983	-5.464424170800029	-0.6598207483742424	28.77402232647095	0	0.9399999999999999	0	36.16789703733333	-10.85867089264804	-9.759877155748216	52.48041400623965	0.9159560172186298	0	0	0	36.16789703733333	-10.85867089264804	-9.759877155748216	52.48041400623965	0.9159560172186298	0	0	0	-4.075364482481453	-0.6624015083247961	-1.027071624520669	24.56175388593513	-59.19896511192407	-13.76781901526268	173.133466831907	-3.153731972625975	0	0	51.46458590832631	-4.893819759312262	-15.74789569036547	54.32621235801392	99.04693663645773	0	0
12.19999999999983	-5.406245368093787	-0.700159189798605	28.7975641195418	0	0.9399999999999999	0	36.1757316459522	-10.85604390612832	-9.760348119526585	52.48189034040733	0.9159817841107156	0	0	0	36.1757316459522	-10.85604390612832	-9.760348119526585	52.48189034040733	0.9159817841107156	0	0	0	-4.043959670446872	-0.7254521406497915	-1.01450615010275	25.03509923826528	-59.36349562440196	-13.235090282585	172.9189298564785	-2.565142537675743	0	0	51.40849732326613	-4.859754781519709	-15.47590714391795	54.33815486756522	98.50968016881278	0	0
